<svg width="314" height="126" viewBox="0 0 314 126" fill="none" xmlns="http://www.w3.org/2000/svg">
<path d="M8 46.8C8 38.4667 9.3 32.4 11.9 28.6C14.5667 24.7333 18.7667 22.8 24.5 22.8C29.0333 22.8 32.6 24.1333 35.2 26.8C37.8 29.4667 39.1 33.1333 39.1 37.8C39.1 43.4667 37.2333 47.9333 33.5 51.2C29.8333 54.4 24.9333 55.8333 18.8 55.5L14 55.2V71.8H28.8V77.2H14V123H8V46.8ZM18.8 50.3C23.2667 50.3 26.7667 49.2 29.3 47C31.8333 44.7333 33.1 41.6333 33.1 37.7C33.1 34.6333 32.3333 32.3 30.8 30.7C29.2667 29.0333 27.1 28.2 24.3 28.2C20.7667 28.2 18.1667 29.7 16.5 32.7C14.8333 35.6333 14 40.2333 14 46.5V50.3H18.8ZM65.7188 98C60.9854 98 56.7521 96.9 53.0188 94.7C49.3521 92.5 46.4854 89.4333 44.4188 85.5C42.3521 81.5667 41.3188 77.1 41.3188 72.1C41.3188 67.1 42.3521 62.6333 44.4188 58.7C46.5521 54.7 49.4521 51.6 53.1188 49.4C56.8521 47.1333 61.0854 46 65.8188 46C70.4854 46 74.6521 47.1333 78.3188 49.4C82.0521 51.6 84.9521 54.6667 87.0188 58.6C89.1521 62.5333 90.2188 67 90.2188 72C90.2188 77 89.1521 81.4667 87.0188 85.4C84.9521 89.3333 82.0521 92.4333 78.3188 94.7C74.6521 96.9 70.4521 98 65.7188 98ZM65.8188 92.6C71.3521 92.6 75.7854 90.7 79.1188 86.9C82.5188 83.1 84.2188 78.1333 84.2188 72C84.2188 67.9333 83.4521 64.3667 81.9188 61.3C80.3854 58.1667 78.2188 55.7333 75.4188 54C72.6188 52.2667 69.4188 51.4 65.8188 51.4C62.1521 51.4 58.9188 52.2667 56.1188 54C53.3188 55.7333 51.1521 58.2 49.6188 61.4C48.0854 64.5333 47.3188 68.1 47.3188 72.1C47.3188 76.1 48.0854 79.6667 49.6188 82.8C51.1521 85.8667 53.3188 88.2667 56.1188 90C58.9188 91.7333 62.1521 92.6 65.8188 92.6ZM122.148 46C124.148 46 126.148 46.3 128.148 46.9V52.5C126.214 52.0333 124.281 51.8 122.348 51.8C118.948 51.8 116.181 52.6333 114.048 54.3C111.914 55.9667 110.014 58.3333 108.348 61.4V97H102.348V62C102.348 56.7333 100.948 52.8667 98.1477 50.4L102.148 46.4C103.348 47.1333 104.481 48.2333 105.548 49.7C106.614 51.1667 107.381 52.8 107.848 54.6C109.714 51.5333 111.581 49.4333 113.448 48.3C115.781 46.7667 118.681 46 122.148 46ZM156.113 98C151.113 98 146.88 96.9667 143.413 94.9C139.947 92.8333 137.313 90 135.513 86.4C133.78 82.7333 132.913 78.6 132.913 74C132.913 69.4667 133.747 65.0667 135.413 60.8C137.147 56.5333 139.713 53.0333 143.113 50.3C146.58 47.5667 150.78 46.2 155.713 46.2C158.98 46.2 162.013 46.8333 164.813 48.1C167.613 49.3667 169.813 51.1667 171.413 53.5C173.08 55.8333 173.913 58.5333 173.913 61.6C173.913 66.5333 171.813 70.3667 167.613 73.1C163.413 75.7667 157.613 77.0667 150.213 77L139.213 76.9C139.813 82.0333 141.513 85.9333 144.313 88.6C147.18 91.2667 151.113 92.6 156.113 92.6C159.113 92.6 161.88 92.2 164.413 91.4C167.013 90.5333 169.513 89.2333 171.913 87.5L174.913 91.5C172.38 93.5 169.48 95.1 166.213 96.3C163.013 97.4333 159.647 98 156.113 98ZM151.513 71.8C162.447 71.8 167.913 68.3667 167.913 61.5C167.913 58.1667 166.747 55.7 164.413 54.1C162.147 52.4333 159.347 51.6 156.013 51.6C152.28 51.6 149.113 52.6667 146.513 54.8C143.98 56.9333 142.08 59.5667 140.813 62.7C139.547 65.8333 138.913 68.8667 138.913 71.8H151.513ZM200.316 98.2C193.582 98.2 187.316 95.6 181.516 90.4L184.816 86.4C187.349 88.4667 189.849 90.0667 192.316 91.2C194.849 92.2667 197.549 92.8 200.416 92.8C204.016 92.8 206.816 91.9667 208.816 90.3C210.882 88.5667 211.916 86.2333 211.916 83.3C211.916 81.4333 211.449 79.9333 210.516 78.8C209.649 77.6 208.449 76.6333 206.916 75.9C205.449 75.1667 202.782 74 198.916 72.4C195.382 70.9333 192.649 69.6667 190.716 68.6C188.782 67.5333 187.249 66.2333 186.116 64.7C184.982 63.1 184.416 61.1 184.416 58.7C184.416 54.7667 185.816 51.6333 188.616 49.3C191.416 46.9 195.149 45.7 199.816 45.7C202.216 45.7 204.582 46.0333 206.916 46.7C209.316 47.3667 211.349 48.3333 213.016 49.6L210.516 53.9C207.449 52.0333 203.982 51.1 200.116 51.1C197.049 51.1 194.682 51.7 193.016 52.9C191.349 54.1 190.516 55.8 190.516 58C190.516 59.6667 190.949 61.0333 191.816 62.1C192.749 63.1667 193.916 64.0667 195.316 64.8C196.782 65.4667 199.182 66.4667 202.516 67.8C206.316 69.3333 209.249 70.7333 211.316 72C213.449 73.2 215.082 74.7 216.216 76.5C217.416 78.2333 218.016 80.4 218.016 83C218.016 87.6 216.382 91.3 213.116 94.1C209.916 96.8333 205.649 98.2 200.316 98.2ZM241.396 98C236.863 98 233.529 96.7333 231.396 94.2C229.263 91.6 228.196 87.7333 228.196 82.6V34.5H234.196V47.2H249.896V52.6H234.196V82.6C234.196 89.2667 236.596 92.6 241.396 92.6C245.196 92.6 248.129 90.5667 250.196 86.5L254.696 89.6C253.163 92.4 251.329 94.5 249.196 95.9C247.063 97.3 244.463 98 241.396 98ZM280.688 98C276.088 98 272.154 96.8333 268.888 94.5C265.621 92.1667 263.154 89.0667 261.488 85.2C259.821 81.3333 258.988 77.0667 258.988 72.4C258.988 67.2667 259.988 62.7333 261.988 58.8C263.988 54.8 266.854 51.7 270.588 49.5C274.321 47.3 278.688 46.2 283.688 46.2C285.221 46.2 287.154 46.3 289.488 46.5C291.821 46.6333 293.888 46.8333 295.688 47.1H301.688V88.4C301.688 89.7333 301.988 90.7667 302.588 91.5C303.254 92.1667 304.054 92.5 304.988 92.5C306.188 92.5 307.154 91.9333 307.888 90.8L312.188 94.2C311.188 95.6 310.054 96.5667 308.788 97.1C307.588 97.7 306.188 98 304.588 98C302.254 98 300.188 97.2 298.388 95.6C296.654 94 295.788 92.0667 295.788 89.8C294.188 92.4667 292.088 94.5 289.488 95.9C286.888 97.3 283.954 98 280.688 98ZM280.788 92.6C283.788 92.6 286.488 91.8667 288.888 90.4C291.288 88.9333 293.088 87 294.288 84.6C295.221 82.6667 295.688 80.5333 295.688 78.2V52L289.088 51.8L283.288 51.6C277.221 51.6 272.654 53.5 269.588 57.3C266.521 61.1 264.988 66.0667 264.988 72.2C264.988 77.8667 266.321 82.7 268.988 86.7C271.721 90.6333 275.654 92.6 280.788 92.6Z" fill="#006644"/>
<path d="M117 48.5H130.201C129.079 53.092 124.937 56.5 120 56.5H106.799C107.921 51.908 112.063 48.5 117 48.5Z" fill="#006644" stroke="#006644" stroke-width="5"/>
<path d="M104.588 51.9548L95.4329 48.6228C93.9668 48.0891 92.9465 46.8728 92.6004 45.4635L101.755 48.7955C103.221 49.3291 104.242 50.5454 104.588 51.9548Z" fill="#7ACB90" stroke="#006644" stroke-width="3.5"/>
</svg>
