<svg width="166" height="50" viewBox="0 0 166 50" fill="none" xmlns="http://www.w3.org/2000/svg">
<path d="M23.5047 18.92C23.5047 15.5867 24.0247 13.16 25.0647 11.64C26.1314 10.0933 27.8114 9.32 30.1047 9.32C31.918 9.32 33.3447 9.85333 34.3847 10.92C35.4247 11.9867 35.9447 13.4533 35.9447 15.32C35.9447 17.5867 35.198 19.3733 33.7047 20.68C32.238 21.96 30.278 22.5333 27.8247 22.4L25.9047 22.28V28.92H31.8247V31.08H25.9047V49.4H23.5047V18.92ZM27.8247 20.32C29.6114 20.32 31.0114 19.88 32.0247 19C33.038 18.0933 33.5447 16.8533 33.5447 15.28C33.5447 14.0533 33.238 13.12 32.6247 12.48C32.0114 11.8133 31.1447 11.48 30.0247 11.48C28.6114 11.48 27.5714 12.08 26.9047 13.28C26.238 14.4533 25.9047 16.2933 25.9047 18.8V20.32H27.8247ZM46.5922 39.4C44.6989 39.4 43.0055 38.96 41.5122 38.08C40.0455 37.2 38.8989 35.9733 38.0722 34.4C37.2455 32.8267 36.8322 31.04 36.8322 29.04C36.8322 27.04 37.2455 25.2533 38.0722 23.68C38.9255 22.08 40.0855 20.84 41.5522 19.96C43.0455 19.0533 44.7389 18.6 46.6322 18.6C48.4989 18.6 50.1655 19.0533 51.6322 19.96C53.1255 20.84 54.2855 22.0667 55.1122 23.64C55.9655 25.2133 56.3922 27 56.3922 29C56.3922 31 55.9655 32.7867 55.1122 34.36C54.2855 35.9333 53.1255 37.1733 51.6322 38.08C50.1655 38.96 48.4855 39.4 46.5922 39.4ZM46.6322 37.24C48.8455 37.24 50.6189 36.48 51.9522 34.96C53.3122 33.44 53.9922 31.4533 53.9922 29C53.9922 27.3733 53.6855 25.9467 53.0722 24.72C52.4589 23.4667 51.5922 22.4933 50.4722 21.8C49.3522 21.1067 48.0722 20.76 46.6322 20.76C45.1655 20.76 43.8722 21.1067 42.7522 21.8C41.6322 22.4933 40.7655 23.48 40.1522 24.76C39.5389 26.0133 39.2322 27.44 39.2322 29.04C39.2322 30.64 39.5389 32.0667 40.1522 33.32C40.7655 34.5467 41.6322 35.5067 42.7522 36.2C43.8722 36.8933 45.1655 37.24 46.6322 37.24ZM69.1638 18.6C69.9638 18.6 70.7638 18.72 71.5638 18.96V21.2C70.7904 21.0133 70.0171 20.92 69.2438 20.92C67.8838 20.92 66.7771 21.2533 65.9238 21.92C65.0704 22.5867 64.3104 23.5333 63.6438 24.76V39H61.2438V25C61.2438 22.8933 60.6838 21.3467 59.5638 20.36L61.1638 18.76C61.6438 19.0533 62.0971 19.4933 62.5238 20.08C62.9504 20.6667 63.2571 21.32 63.4438 22.04C64.1904 20.8133 64.9371 19.9733 65.6838 19.52C66.6171 18.9067 67.7771 18.6 69.1638 18.6ZM82.75 39.4C80.75 39.4 79.0567 38.9867 77.67 38.16C76.2833 37.3333 75.23 36.2 74.51 34.76C73.8167 33.2933 73.47 31.64 73.47 29.8C73.47 27.9867 73.8033 26.2267 74.47 24.52C75.1633 22.8133 76.19 21.4133 77.55 20.32C78.9367 19.2267 80.6167 18.68 82.59 18.68C83.8967 18.68 85.11 18.9333 86.23 19.44C87.35 19.9467 88.23 20.6667 88.87 21.6C89.5367 22.5333 89.87 23.6133 89.87 24.84C89.87 26.8133 89.03 28.3467 87.35 29.44C85.67 30.5067 83.35 31.0267 80.39 31L75.99 30.96C76.23 33.0133 76.91 34.5733 78.03 35.64C79.1767 36.7067 80.75 37.24 82.75 37.24C83.95 37.24 85.0567 37.08 86.07 36.76C87.11 36.4133 88.11 35.8933 89.07 35.2L90.27 36.8C89.2567 37.6 88.0967 38.24 86.79 38.72C85.51 39.1733 84.1633 39.4 82.75 39.4ZM80.91 28.92C85.2833 28.92 87.47 27.5467 87.47 24.8C87.47 23.4667 87.0033 22.48 86.07 21.84C85.1633 21.1733 84.0433 20.84 82.71 20.84C81.2167 20.84 79.95 21.2667 78.91 22.12C77.8967 22.9733 77.1367 24.0267 76.63 25.28C76.1233 26.5333 75.87 27.7467 75.87 28.92H80.91ZM100.431 39.48C97.7376 39.48 95.2309 38.44 92.9109 36.36L94.2309 34.76C95.2443 35.5867 96.2443 36.2267 97.2309 36.68C98.2443 37.1067 99.3243 37.32 100.471 37.32C101.911 37.32 103.031 36.9867 103.831 36.32C104.658 35.6267 105.071 34.6933 105.071 33.52C105.071 32.7733 104.884 32.1733 104.511 31.72C104.164 31.24 103.684 30.8533 103.071 30.56C102.484 30.2667 101.418 29.8 99.8709 29.16C98.4576 28.5733 97.3643 28.0667 96.5909 27.64C95.8176 27.2133 95.2043 26.6933 94.7509 26.08C94.2976 25.44 94.0709 24.64 94.0709 23.68C94.0709 22.1067 94.6309 20.8533 95.7509 19.92C96.8709 18.96 98.3643 18.48 100.231 18.48C101.191 18.48 102.138 18.6133 103.071 18.88C104.031 19.1467 104.844 19.5333 105.511 20.04L104.511 21.76C103.284 21.0133 101.898 20.64 100.351 20.64C99.1243 20.64 98.1776 20.88 97.5109 21.36C96.8443 21.84 96.5109 22.52 96.5109 23.4C96.5109 24.0667 96.6843 24.6133 97.0309 25.04C97.4043 25.4667 97.8709 25.8267 98.4309 26.12C99.0176 26.3867 99.9776 26.7867 101.311 27.32C102.831 27.9333 104.004 28.4933 104.831 29C105.684 29.48 106.338 30.08 106.791 30.8C107.271 31.4933 107.511 32.36 107.511 33.4C107.511 35.24 106.858 36.72 105.551 37.84C104.271 38.9333 102.564 39.48 100.431 39.48ZM116.863 39.4C115.05 39.4 113.716 38.8933 112.863 37.88C112.01 36.84 111.583 35.2933 111.583 33.24V14H113.983V19.08H120.263V21.24H113.983V33.24C113.983 35.9067 114.943 37.24 116.863 37.24C118.383 37.24 119.556 36.4267 120.383 34.8L122.183 36.04C121.57 37.16 120.836 38 119.983 38.56C119.13 39.12 118.09 39.4 116.863 39.4ZM132.58 39.4C130.74 39.4 129.166 38.9333 127.86 38C126.553 37.0667 125.566 35.8267 124.9 34.28C124.233 32.7333 123.9 31.0267 123.9 29.16C123.9 27.1067 124.3 25.2933 125.1 23.72C125.9 22.12 127.046 20.88 128.54 20C130.033 19.12 131.78 18.68 133.78 18.68C134.393 18.68 135.166 18.72 136.1 18.8C137.033 18.8533 137.86 18.9333 138.58 19.04H140.98V35.56C140.98 36.0933 141.1 36.5067 141.34 36.8C141.606 37.0667 141.926 37.2 142.3 37.2C142.78 37.2 143.166 36.9733 143.46 36.52L145.18 37.88C144.78 38.44 144.326 38.8267 143.82 39.04C143.34 39.28 142.78 39.4 142.14 39.4C141.206 39.4 140.38 39.08 139.66 38.44C138.966 37.8 138.62 37.0267 138.62 36.12C137.98 37.1867 137.14 38 136.1 38.56C135.06 39.12 133.886 39.4 132.58 39.4ZM132.62 37.24C133.82 37.24 134.9 36.9467 135.86 36.36C136.82 35.7733 137.54 35 138.02 34.04C138.393 33.2667 138.58 32.4133 138.58 31.48V21L135.94 20.92L133.62 20.84C131.193 20.84 129.366 21.6 128.14 23.12C126.913 24.64 126.3 26.6267 126.3 29.08C126.3 31.3467 126.833 33.28 127.9 34.88C128.993 36.4533 130.566 37.24 132.62 37.24Z" fill="#006644"/>
<path d="M65.7718 22.0486C66.3417 21.5667 67.0787 21.2762 67.8835 21.2762H71.3392C70.7693 21.7581 70.0323 22.0486 69.2275 22.0486H65.7718Z" fill="#006644" stroke="#006644" stroke-width="2.88622"/>
<mask id="path-3-inside-1_40_349" fill="white">
<path d="M56.0641 17L61.4955 18.975C63.1089 19.5618 63.9405 21.3451 63.3528 22.9582L57.9214 20.9831C56.308 20.3964 55.4764 18.6131 56.0641 17Z"/>
</mask>
<path d="M56.0641 17L61.4955 18.975C63.1089 19.5618 63.9405 21.3451 63.3528 22.9582L57.9214 20.9831C56.308 20.3964 55.4764 18.6131 56.0641 17Z" fill="#7ACB90"/>
<path d="M54.3526 21.698L59.784 23.673L63.207 14.2771L57.7756 12.302L54.3526 21.698ZM65.0643 18.2602L59.6329 16.2852L56.21 25.6811L61.6414 27.6561L65.0643 18.2602ZM59.6329 16.2852C60.6147 16.6422 61.1206 17.7272 60.7631 18.7087L51.3651 15.2913C49.8322 19.499 52.0013 24.1507 56.21 25.6811L59.6329 16.2852ZM59.784 23.673C58.8023 23.316 58.2963 22.231 58.6539 21.2495L68.0518 24.6669C69.5847 20.4592 67.4156 15.8075 63.207 14.2771L59.784 23.673Z" fill="#006644" mask="url(#path-3-inside-1_40_349)"/>
</svg>
