<svg width="81" height="25" viewBox="0 0 81 25" fill="none" xmlns="http://www.w3.org/2000/svg">
<path d="M7.18 21.24C6.03333 21.24 5.01333 21 4.12 20.52C3.24 20.04 2.54667 19.38 2.04 18.54C1.53333 17.7 1.28 16.7467 1.28 15.68V6.1H4V15.54C4 16.1533 4.13333 16.7067 4.4 17.2C4.68 17.6933 5.06 18.08 5.54 18.36C6.02 18.6267 6.56667 18.76 7.18 18.76C7.80667 18.76 8.35333 18.6267 8.82 18.36C9.3 18.08 9.67333 17.6933 9.94 17.2C10.22 16.7067 10.36 16.1533 10.36 15.54V6.1H13.08V15.68C13.08 16.7467 12.8267 17.7 12.32 18.54C11.8133 19.38 11.1133 20.04 10.22 20.52C9.34 21 8.32667 21.24 7.18 21.24ZM19.7155 21.24C18.5555 21.24 17.5421 20.9667 16.6755 20.42C15.8221 19.86 15.2355 19.1067 14.9155 18.16L16.8755 17.22C17.1555 17.8333 17.5421 18.3133 18.0355 18.66C18.5421 19.0067 19.1021 19.18 19.7155 19.18C20.1955 19.18 20.5755 19.0733 20.8555 18.86C21.1355 18.6467 21.2755 18.3667 21.2755 18.02C21.2755 17.8067 21.2155 17.6333 21.0955 17.5C20.9888 17.3533 20.8355 17.2333 20.6355 17.14C20.4488 17.0333 20.2421 16.9467 20.0155 16.88L18.2355 16.38C17.3155 16.1133 16.6155 15.7067 16.1355 15.16C15.6688 14.6133 15.4355 13.9667 15.4355 13.22C15.4355 12.5533 15.6021 11.9733 15.9355 11.48C16.2821 10.9733 16.7555 10.58 17.3555 10.3C17.9688 10.02 18.6688 9.88 19.4555 9.88C20.4821 9.88 21.3888 10.1267 22.1755 10.62C22.9621 11.1133 23.5221 11.8067 23.8555 12.7L21.8555 13.64C21.6688 13.1467 21.3555 12.7533 20.9155 12.46C20.4755 12.1667 19.9821 12.02 19.4355 12.02C18.9955 12.02 18.6488 12.12 18.3955 12.32C18.1421 12.52 18.0155 12.78 18.0155 13.1C18.0155 13.3 18.0688 13.4733 18.1755 13.62C18.2821 13.7667 18.4288 13.8867 18.6155 13.98C18.8155 14.0733 19.0421 14.16 19.2955 14.24L21.0355 14.76C21.9288 15.0267 22.6155 15.4267 23.0955 15.96C23.5888 16.4933 23.8355 17.1467 23.8355 17.92C23.8355 18.5733 23.6621 19.1533 23.3155 19.66C22.9688 20.1533 22.4888 20.54 21.8755 20.82C21.2621 21.1 20.5421 21.24 19.7155 21.24ZM31.0089 21.24C29.8889 21.24 28.9089 20.9867 28.0689 20.48C27.2289 19.9733 26.5756 19.2867 26.1089 18.42C25.6422 17.5533 25.4089 16.5933 25.4089 15.54C25.4089 14.4467 25.6422 13.48 26.1089 12.64C26.5889 11.7867 27.2356 11.1133 28.0489 10.62C28.8756 10.1267 29.7956 9.88 30.8089 9.88C31.6622 9.88 32.4089 10.02 33.0489 10.3C33.7022 10.58 34.2556 10.9667 34.7089 11.46C35.1622 11.9533 35.5089 12.52 35.7489 13.16C35.9889 13.7867 36.1089 14.4667 36.1089 15.2C36.1089 15.3867 36.0956 15.58 36.0689 15.78C36.0556 15.98 36.0222 16.1533 35.9689 16.3H27.5689V14.3H34.4889L33.2489 15.24C33.3689 14.6267 33.3356 14.08 33.1489 13.6C32.9756 13.12 32.6822 12.74 32.2689 12.46C31.8689 12.18 31.3822 12.04 30.8089 12.04C30.2622 12.04 29.7756 12.18 29.3489 12.46C28.9222 12.7267 28.5956 13.1267 28.3689 13.66C28.1556 14.18 28.0756 14.8133 28.1289 15.56C28.0756 16.2267 28.1622 16.82 28.3889 17.34C28.6289 17.8467 28.9756 18.24 29.4289 18.52C29.8956 18.8 30.4289 18.94 31.0289 18.94C31.6289 18.94 32.1356 18.8133 32.5489 18.56C32.9756 18.3067 33.3089 17.9667 33.5489 17.54L35.6689 18.58C35.4556 19.1 35.1222 19.56 34.6689 19.96C34.2156 20.36 33.6756 20.6733 33.0489 20.9C32.4356 21.1267 31.7556 21.24 31.0089 21.24ZM38.095 21V10.12H40.555V12.54L40.355 12.18C40.6083 11.3667 41.0017 10.8 41.535 10.48C42.0817 10.16 42.735 10 43.495 10H44.135V12.32H43.195C42.4483 12.32 41.8483 12.5533 41.395 13.02C40.9417 13.4733 40.715 14.1133 40.715 14.94V21H38.095Z" fill="#006644"/>
<path d="M72.25 6C72.25 7.79493 70.7949 9.25 69 9.25C67.2051 9.25 65.75 7.79493 65.75 6C65.75 4.20507 67.2051 2.75 69 2.75C70.7949 2.75 72.25 4.20507 72.25 6Z" stroke="#006644" stroke-width="1.5"/>
<path d="M75.25 17C75.25 18.0756 74.6409 19.1202 73.5138 19.9252C72.3882 20.7293 70.7947 21.25 69 21.25C67.2053 21.25 65.6118 20.7293 64.4862 19.9252C63.3591 19.1202 62.75 18.0756 62.75 17C62.75 15.9244 63.3591 14.8798 64.4862 14.0748C65.6118 13.2707 67.2053 12.75 69 12.75C70.7947 12.75 72.3882 13.2707 73.5138 14.0748C74.6409 14.8798 75.25 15.9244 75.25 17Z" stroke="#006644" stroke-width="1.5"/>
</svg>
